<svg xmlns="http://www.w3.org/2000/svg" xmlns:xlink="http://www.w3.org/1999/xlink" width="754.831" height="215.04" viewBox="0 0 754.831 215.04">
  <defs>
    <linearGradient id="linear-gradient" x1="0.5" x2="0.5" y2="1" gradientUnits="objectBoundingBox">
      <stop offset="0" stop-color="#fc4b1a"/>
      <stop offset="1" stop-color="#f7b633"/>
    </linearGradient>
    <linearGradient id="linear-gradient-2" x1="0.067" x2="1" y2="1.013" xlink:href="#linear-gradient"/>
    <linearGradient id="linear-gradient-3" x1="0.187" x2="0.687" xlink:href="#linear-gradient"/>
    <linearGradient id="linear-gradient-4" x1="0.196" x2="0.614" xlink:href="#linear-gradient"/>
  </defs>
  <g id="Group_1" data-name="Group 1" transform="translate(-567.307 -553)">
    <g id="logo-church" transform="translate(521.227 553)">
      <path id="Path_1" data-name="Path 1" d="M107.52,23.893,97.28,64.853h20.48Z" fill="url(#linear-gradient)"/>
      <path id="Path_2" data-name="Path 2" d="M117.76,68.267H97.28a3.413,3.413,0,0,1-3.311-4.241l10.24-40.96a3.413,3.413,0,0,1,6.622,0l10.24,40.96a3.413,3.413,0,0,1-3.311,4.241ZM101.652,61.44h11.737L107.52,37.967Z"/>
      <rect id="Rectangle_1" data-name="Rectangle 1" width="34.133" height="146.773" transform="translate(90.453 64.853)" fill="url(#linear-gradient-2)"/>
      <path id="Path_3" data-name="Path 3" d="M124.587,215.04H90.453a3.414,3.414,0,0,1-3.413-3.413V64.853a3.414,3.414,0,0,1,3.413-3.413h34.133A3.414,3.414,0,0,1,128,64.853V211.626A3.413,3.413,0,0,1,124.587,215.04Zm-30.72-6.827h27.307V68.267H93.867Z"/>
      <path id="Path_4" data-name="Path 4" d="M107.52,27.307a3.414,3.414,0,0,1-3.413-3.413V3.413a3.413,3.413,0,0,1,6.826,0v20.48A3.415,3.415,0,0,1,107.52,27.307Z"/>
      <path id="Path_5" data-name="Path 5" d="M114.347,13.653H100.694a3.413,3.413,0,1,1,0-6.826h13.653a3.413,3.413,0,1,1,0,6.826Z"/>
      <path id="Path_6" data-name="Path 6" d="M114.347,109.227H100.694V85.333a6.828,6.828,0,0,1,6.827-6.827h0a6.828,6.828,0,0,1,6.827,6.827v23.894Z" fill="#26bbec"/>
      <path id="Path_7" data-name="Path 7" d="M114.347,112.64H100.694a3.414,3.414,0,0,1-3.413-3.413V85.333a10.24,10.24,0,1,1,20.48,0v23.893A3.416,3.416,0,0,1,114.347,112.64Zm-10.24-6.827h6.827V85.333a3.413,3.413,0,0,0-6.826,0v20.48Z"/>
      <rect id="Rectangle_2" data-name="Rectangle 2" width="6.827" height="81.92" transform="translate(73.387 133.12)"/>
      <rect id="Rectangle_3" data-name="Rectangle 3" width="6.827" height="68.267" transform="translate(59.733 146.773)"/>
      <rect id="Rectangle_4" data-name="Rectangle 4" width="6.827" height="51.2" transform="translate(46.08 163.84)"/>
      <rect id="Rectangle_7" data-name="Rectangle 7" width="6.827" height="81.92" transform="translate(134.827 133.12)"/>
      <rect id="Rectangle_8" data-name="Rectangle 8" width="6.827" height="68.267" transform="translate(148.48 146.773)"/>
      <rect id="Rectangle_9" data-name="Rectangle 9" width="6.827" height="51.2" transform="translate(162.133 163.84)"/>
      <rect id="Rectangle_12" data-name="Rectangle 12" width="13.653" height="37.547" transform="translate(100.693 174.08)" fill="#26bbec"/>
      <path id="Path_8" data-name="Path 8" d="M114.347,215.04H100.694a3.414,3.414,0,0,1-3.413-3.413V174.08a3.414,3.414,0,0,1,3.413-3.413h13.653a3.414,3.414,0,0,1,3.413,3.413v37.547A3.414,3.414,0,0,1,114.347,215.04Zm-10.24-6.827h6.827v-30.72h-6.827Z"/>
    </g>
    <path id="Path_9" data-name="Path 9" d="M6.674,0H41.89V-7.81H15.9V-49.7H6.674ZM75.828-37.914v19.17c0,7.6-4.189,11.431-10.366,11.431-5.609,0-8.875-3.266-8.875-10.153V-37.914H47.712v21.655C47.712-4.828,54.315.5,64.042.5A15.488,15.488,0,0,0,76.254-4.828V0H84.7V-37.914ZM116.653-8.378a7.98,7.98,0,0,1-4.97,1.562c-3.408,0-5.254-1.988-5.254-5.68V-30.53h10.153v-7.1H106.429v-8.662H97.554v8.662H91.306v7.1h6.248v18.247C97.554-3.905,102.311.5,110.618.5a13.946,13.946,0,0,0,8.52-2.556ZM147.964-38.34c-5.254,0-9.727,1.7-12.638,4.828v-19.17h-8.875V0h8.875V-19.17c0-7.6,4.26-11.431,10.579-11.431,5.68,0,9.017,3.266,9.017,10.011V0H163.8V-21.726C163.8-33.157,157.052-38.34,147.964-38.34Zm63.119,19.6c0-11.857-8.094-19.6-19.17-19.6-11.289,0-19.6,8.094-19.6,19.383S180.553.5,193.262.5c6.532,0,11.857-2.13,15.265-6.177l-4.757-5.467a13.587,13.587,0,0,1-10.295,4.118c-6.6,0-11.218-3.55-12.283-9.088h29.749C211.012-16.969,211.083-18.034,211.083-18.744Zm-19.17-12.5a10.321,10.321,0,0,1,10.721,9.23H181.121A10.478,10.478,0,0,1,191.913-31.24Zm36.139-1.136v-5.538H219.6V0h8.875V-18.389c0-7.739,4.26-11.715,11-11.715a11.267,11.267,0,0,1,2.059.213V-38.34C235.223-38.34,230.608-36.352,228.052-32.376Zm35.287-5.964c-6.106,0-12,1.562-16.046,4.686l3.479,6.461a18.77,18.77,0,0,1,11.5-3.763c6.319,0,9.443,3.053,9.443,8.236v.568h-9.8c-11.5,0-15.762,4.97-15.762,11.289,0,6.6,5.467,11.36,14.129,11.36,5.68,0,9.8-1.846,11.928-5.112V0h8.378V-22.223C280.592-33.157,274.273-38.34,263.339-38.34ZM262.132-5.964c-4.544,0-7.242-2.059-7.242-5.254,0-2.769,1.633-5.041,7.668-5.041h9.159v4.4C270.226-7.952,266.463-5.964,262.132-5.964ZM313.465-38.34c-5.538,0-10.153,1.846-13.064,5.325v-4.9h-8.449V0h8.875V-19.17c0-7.6,4.26-11.431,10.579-11.431,5.68,0,9.017,3.266,9.017,10.011V0H329.3V-21.726C329.3-33.157,322.553-38.34,313.465-38.34ZM384.039.71C392.2.71,399.162-2.2,403.777-7.6l-5.964-5.68a17.279,17.279,0,0,1-13.277,5.893c-10.295,0-17.75-7.242-17.75-17.466s7.455-17.466,17.75-17.466a17.454,17.454,0,0,1,13.277,5.822l5.964-5.609c-4.615-5.4-11.573-8.307-19.667-8.307-15.265,0-26.625,10.721-26.625,25.56S368.845.71,384.039.71Zm49.274-39.05c-5.254,0-9.727,1.7-12.638,4.828v-19.17H411.8V0h8.875V-19.17c0-7.6,4.26-11.431,10.579-11.431,5.68,0,9.017,3.266,9.017,10.011V0h8.875V-21.726C449.146-33.157,442.4-38.34,433.313-38.34Zm54.954.426v19.17c0,7.6-4.189,11.431-10.366,11.431-5.609,0-8.875-3.266-8.875-10.153V-37.914h-8.875v21.655c0,11.431,6.6,16.756,16.33,16.756a15.488,15.488,0,0,0,12.212-5.325V0h8.449V-37.914Zm28.968,5.538v-5.538h-8.449V0h8.875V-18.389c0-7.739,4.26-11.715,11.005-11.715a11.267,11.267,0,0,1,2.059.213V-38.34C524.406-38.34,519.791-36.352,517.235-32.376ZM555.291.5c7.384,0,13.277-3.2,16.188-8.875l-6.816-3.976A10.729,10.729,0,0,1,555.22-7.1c-6.532,0-11.5-4.473-11.5-11.857,0-7.313,4.97-11.857,11.5-11.857a10.729,10.729,0,0,1,9.443,5.254l6.816-3.976c-2.911-5.751-8.8-8.8-16.188-8.8-12,0-20.519,8.023-20.519,19.383S543.292.5,555.291.5ZM600.305-38.34c-5.254,0-9.727,1.7-12.638,4.828v-19.17h-8.875V0h8.875V-19.17c0-7.6,4.26-11.431,10.579-11.431,5.68,0,9.017,3.266,9.017,10.011V0h8.875V-21.726C616.138-33.157,609.393-38.34,600.305-38.34Z" transform="translate(706 766)" fill="url(#linear-gradient-3)"/>
    <path id="Path_10" data-name="Path 10" d="M34.21,1.1c21.12,0,31.13-10.56,31.13-22.88,0-28.27-45.65-17.6-45.65-33.99,0-5.83,4.84-10.45,16.72-10.45a42.789,42.789,0,0,1,21.23,6.05l4.51-11.11c-6.71-4.4-16.39-6.82-25.63-6.82C15.4-78.1,5.5-67.54,5.5-55.11c0,28.6,45.76,17.71,45.76,34.32,0,5.72-5.06,10.01-17.05,10.01-9.46,0-19.25-3.52-25.41-8.47L3.85-8.14C10.23-2.64,22.22,1.1,34.21,1.1Zm84.26-14.08a12.364,12.364,0,0,1-7.7,2.42c-5.28,0-8.14-3.08-8.14-8.8V-47.3h15.73v-11H102.63V-71.72H88.88V-58.3H79.2v11h9.68v28.27c0,12.98,7.37,19.8,20.24,19.8,4.95,0,9.9-1.32,13.2-3.96ZM147.95.77a8.947,8.947,0,0,0,9.02-9.13,8.815,8.815,0,0,0-9.02-9.13,8.815,8.815,0,0,0-9.02,9.13A8.947,8.947,0,0,0,147.95.77Zm83.71.33c16.94,0,25.96-8.91,25.96-27.06V-77H215.93v11.99h27.39v39.82c0,9.46-4.07,14.19-11.99,14.19-6.05,0-11.11-3.08-15.29-8.8l-8.14,9.79C213.18-2.86,221.98,1.1,231.66,1.1ZM311.52.77c18.26,0,31.35-12.54,31.35-30.14S329.78-59.4,311.52-59.4c-18.04,0-31.24,12.43-31.24,30.03S293.48.77,311.52.77Zm0-11.77c-9.9,0-17.38-7.15-17.38-18.37s7.48-18.37,17.38-18.37c10.01,0,17.49,7.15,17.49,18.37S321.53-11,311.52-11ZM398.2-59.4c-8.14,0-15.07,2.64-19.58,7.48v-29.7H364.87V0h13.75V-29.7c0-11.77,6.6-17.71,16.39-17.71,8.8,0,13.97,5.06,13.97,15.51V0h13.75V-33.66C422.73-51.37,412.28-59.4,398.2-59.4Zm84.15,0c-8.58,0-15.73,2.86-20.24,8.25v-7.59H449.02V0h13.75V-29.7c0-11.77,6.6-17.71,16.39-17.71,8.8,0,13.97,5.06,13.97,15.51V0h13.75V-33.66C506.88-51.37,496.43-59.4,482.35-59.4Zm48.84,12.87H541.2L542.19-77H530.31ZM584.32.77c16.5,0,26.62-7.15,26.62-18.15,0-22.99-36.3-12.43-36.3-24.31,0-3.85,3.96-6.6,12.32-6.6a32.153,32.153,0,0,1,16.83,4.4l5.28-10.45c-5.28-3.19-14.19-5.06-22-5.06-15.84,0-25.85,7.26-25.85,18.37,0,23.43,36.3,12.87,36.3,24.09,0,4.07-3.63,6.49-12.32,6.49a39.523,39.523,0,0,1-20.46-5.83L559.46-5.83C564.74-2.09,574.53.77,584.32.77Z" transform="translate(706 703)" fill="url(#linear-gradient-4)"/>
  </g>
</svg>
