<svg xmlns="http://www.w3.org/2000/svg" width="396.939" height="511.918" viewBox="0 0 396.939 511.918">
  <g id="zoom-in" transform="translate(-57.49 0)">
    <path id="Path_39" data-name="Path 39" d="M376.412,106.454a10,10,0,0,0-16.256,11.65c45.693,63.759,26.126,152.766-41.28,191.683a132.162,132.162,0,0,1-180.634-48.4c-36.456-63.146-14.744-144.178,48.4-180.635a131.2,131.2,0,0,1,118.482-6.915,10,10,0,1,0,7.9-18.371,152.019,152.019,0,0,0-136.387,7.966c-72.695,41.971-97.691,135.26-55.721,207.955A152.239,152.239,0,1,0,376.412,106.454Z" fill="#fff"/>
    <path id="Path_40" data-name="Path 40" d="M252.76,253.237a10,10,0,0,0,10-10V205.269h37.967a10,10,0,0,0,0-20H262.76V147.3a10,10,0,0,0-20,0v37.967H204.792a10,10,0,1,0,0,20H242.76v37.968a10,10,0,0,0,10,10Z" fill="#fff"/>
    <path id="Path_41" data-name="Path 41" d="M341.68,94.195a10,10,0,0,0,0-20h-.025a10,10,0,0,0,.025,20Z" fill="#fff"/>
    <path id="Path_42" data-name="Path 42" d="M448.46,445,386.5,337.685c64.047-59.918,82.155-159.092,35.4-240.07C368.057,4.351,248.373-27.719,155.105,26.128S29.771,199.659,83.618,292.924c46.79,81.044,141.781,114.87,225.613,89.387l61.954,107.306A44.615,44.615,0,0,0,448.46,445ZM328.325,375.383a199.013,199.013,0,0,0,22.088-10.97h0a204.81,204.81,0,0,0,20.551-13.634l10.93,18.932a220.079,220.079,0,0,1-42.635,24.614ZM100.938,282.924C52.6,199.209,81.391,91.781,165.1,43.448c84.246-48.64,191.454-19.01,239.476,64.167,43.26,74.929,24.711,167.087-37.332,220.44C283.686,399.933,155.831,378,100.938,282.924Zm321.191,205.7a24.6,24.6,0,0,1-33.624-9.01l-39.192-67.882a238.054,238.054,0,0,0,42.635-24.615L431.139,455a24.643,24.643,0,0,1-9.01,33.626Z" fill="#fff"/>
  </g>
</svg>
